HIERARCHY
ROOT Hips
{
	OFFSET 0.00000 0.00000 0.00000
	CHANNELS 6 Xposition Yposition Zposition Zrotation Yrotation Xrotation 
	JOINT LHipJoint
	{
		OFFSET 0 0 0
		CHANNELS 3 Zrotation Yrotation Xrotation
		JOINT LeftUpLeg
		{
			OFFSET 1.37590 -1.78394 0.89329
			CHANNELS 3 Zrotation Yrotation Xrotation
			JOINT LeftLeg
			{
				OFFSET 2.47928 -6.81178 0.00000
				CHANNELS 3 Zrotation Yrotation Xrotation
				JOINT LeftFoot
				{
					OFFSET 2.63345 -7.23535 0.00000
					CHANNELS 3 Zrotation Yrotation Xrotation
					JOINT LeftToeBase
					{
						OFFSET 0.23938 -0.65768 2.27012
						CHANNELS 3 Zrotation Yrotation Xrotation
						End Site
						{
							OFFSET 0.00000 -0.00000 1.18363
						}
					}
				}
			}
		}
	}
	JOINT RHipJoint
	{
		OFFSET 0 0 0
		CHANNELS 3 Zrotation Yrotation Xrotation
		JOINT RightUpLeg
		{
			OFFSET -1.33617 -1.78394 0.89329
			CHANNELS 3 Zrotation Yrotation Xrotation
			JOINT RightLeg
			{
				OFFSET -2.56922 -7.05888 0.00000
				CHANNELS 3 Zrotation Yrotation Xrotation
				JOINT RightFoot
				{
					OFFSET -2.56568 -7.04915 0.00000
					CHANNELS 3 Zrotation Yrotation Xrotation
					JOINT RightToeBase
					{
						OFFSET -0.27533 -0.75646 2.18105
						CHANNELS 3 Zrotation Yrotation Xrotation
						End Site
						{
							OFFSET -0.00000 -0.00000 1.15233
						}
					}
				}
			}
		}
	}
	JOINT LowerBack
	{
		OFFSET 0 0 0
		CHANNELS 3 Zrotation Yrotation Xrotation
		JOINT Spine
		{
			OFFSET 0.06190 2.15152 -0.00935
			CHANNELS 3 Zrotation Yrotation Xrotation
			JOINT Spine1
			{
				OFFSET 0.06334 2.15332 0.00872
				CHANNELS 3 Zrotation Yrotation Xrotation
				JOINT Neck
				{
					OFFSET 0 0 0
					CHANNELS 3 Zrotation Yrotation Xrotation
					JOINT Neck1
					{
						OFFSET -0.04202 1.66908 0.23524
						CHANNELS 3 Zrotation Yrotation Xrotation
						JOINT Head
						{
							OFFSET 0.07510 1.69357 -0.24440
							CHANNELS 3 Zrotation Yrotation Xrotation
							End Site
							{
								OFFSET 0.02556 1.71719 -0.11000
							}
						}
					}
				}
				JOINT LeftShoulder
				{
					OFFSET 0 0 0
					CHANNELS 3 Zrotation Yrotation Xrotation
					JOINT LeftArm
					{
						OFFSET 3.67168 1.26306 -0.41342
						CHANNELS 3 Zrotation Yrotation Xrotation
						JOINT LeftForeArm
						{
							OFFSET 4.68510 -0.00000 -0.00000
							CHANNELS 3 Zrotation Yrotation Xrotation
							JOINT LeftHand
							{
								OFFSET 3.39626 -0.00000 -0.00000
								CHANNELS 3 Zrotation Yrotation Xrotation
								JOINT LeftFingerBase
								{
									OFFSET 0 0 0
									CHANNELS 3 Zrotation Yrotation Xrotation
									JOINT LeftHandIndex1
									{
										OFFSET 0.48608 -0.00000 -0.00000
										CHANNELS 3 Zrotation Yrotation Xrotation
										End Site
										{
											OFFSET 0.39189 -0.00000 -0.00000
										}
									}
								}
								JOINT LThumb
								{
									OFFSET 0 0 0
									CHANNELS 3 Zrotation Yrotation Xrotation
									End Site
									{
										OFFSET 0.39787 -0.00000 0.39787
									}
								}
							}
						}
					}
				}
				JOINT RightShoulder
				{
					OFFSET 0 0 0
					CHANNELS 3 Zrotation Yrotation Xrotation
					JOINT RightArm
					{
						OFFSET -3.04136 1.42992 -0.76390
						CHANNELS 3 Zrotation Yrotation Xrotation
						JOINT RightForeArm
						{
							OFFSET -5.55576 -0.00000 -0.00000
							CHANNELS 3 Zrotation Yrotation Xrotation
							JOINT RightHand
							{
								OFFSET -3.32774 -0.00000 -0.00000
								CHANNELS 3 Zrotation Yrotation Xrotation
								JOINT RightFingerBase
								{
									OFFSET 0 0 0
									CHANNELS 3 Zrotation Yrotation Xrotation
									JOINT RightHandIndex1
									{
										OFFSET -0.50763 -0.00000 -0.00000
										CHANNELS 3 Zrotation Yrotation Xrotation
										End Site
										{
											OFFSET -0.40926 -0.00000 -0.00000
										}
									}
								}
								JOINT RThumb
								{
									OFFSET 0 0 0
									CHANNELS 3 Zrotation Yrotation Xrotation
									End Site
									{
										OFFSET -0.41551 -0.00000 0.41551
									}
								}
							}
						}
					}
				}
			}
		}
	}
}
MOTION
Frames: 14
Frame Time: .0083333
42.7913 17.9527 6.209 0 0 0 0 0 0 -21 0 0 0 0 0 0 0 0 0 0 0 0 0 0 21 0 0 0 0 0 0 0 0 0 0 0 0 0 0 0 0 0 0 0 0 0 0 -16 0 0 21 0 0 11 0 0 0 -8 0 0 0 0 0 0 0 0 0 0 0 0 0 0 0 0 0 0 0 0 8 0 0 0 0 0 0 0 0 0 0 0 0 0 0 0 0 0
42.7913 17.9527 6.2090 -135.0660 -83.9644 143.1810 0.0000 0.0000 0.0000 -15.1191 -6.4414 -2.6806 0.2338 3.1118 8.5901 0.2964 -0.2961 -10.1826 0.0644 1.6375 4.5048 0.0000 0.0000 0.0000 26.1897 5.5842 -6.7114 -0.6536 -5.1710 14.3970 -0.0091 -10.2728 -14.7732 -0.3363 -3.7268 10.3092 1.9645 -0.3154 -3.8181 2.5948 -0.5504 -3.5707 1.5511 -0.3302 -1.5192 -10.7969 -9.0074 -14.4628 7.8443 -11.7006 17.2126 2.9166 -5.5295 8.8733 -0.0000 0.0000 0.0000 -89.5201 1.3406 4.5028 11.2295 -18.6392 -1.8486 -0.0000 -0.0000 32.6362 13.1714 17.3639 3.9951 -7.1250 0.0000 -0.0000 -14.0988 47.2774 -0.8077 -0.0000 0.0000 0.0000 83.0378 1.5573 15.4920 -11.7703 19.4592 -2.0251 0.0000 0.0000 13.4950 -11.5965 -22.3493 4.4618 7.1250 -0.0000 -0.0000 17.5922 -51.8906 -3.0634
42.8037 17.9569 6.2182 -135.5430 -83.9040 143.7660 0.0000 0.0000 0.0000 -15.1470 -6.5834 -2.8607 0.2396 3.1501 8.6969 0.2965 -0.1576 -10.2307 0.0712 1.7221 4.7381 0.0000 0.0000 0.0000 26.1244 5.5738 -7.0305 -0.6721 -5.2424 14.6011 -0.0196 -10.1078 -14.7082 -0.3431 -3.7639 10.4133 2.0611 -0.5430 -3.9181 2.8247 -0.8650 -3.4719 1.7235 -0.4876 -1.3560 -11.3351 -8.8094 -14.8766 7.8867 -11.2749 17.4531 3.0619 -5.3456 9.0236 0.0000 0.0000 0.0000 -90.0277 1.2356 4.2026 11.3752 -18.8611 -1.8954 -0.0000 -0.0000 32.2994 13.2067 17.5556 4.0489 -7.1250 0.0000 -0.0000 -14.1313 47.4712 -0.8784 0.0000 0.0000 0.0000 82.6995 1.9203 16.0764 -11.8181 19.5313 -2.0411 0.0000 0.0000 13.7760 -11.8535 -23.5554 4.7946 7.1250 -0.0000 -0.0000 17.9356 -53.0898 -3.6630
42.7771 17.9531 6.1993 -134.2490 -84.3845 142.3160 0.0000 0.0000 0.0000 -15.3643 -6.4779 -2.5853 0.2319 3.0992 8.5552 0.2909 -0.5737 -10.0004 0.0684 1.6876 4.6430 0.0000 0.0000 0.0000 25.9781 5.3414 -6.5544 -0.6356 -5.1010 14.1969 0.0070 -10.4955 -14.8369 -0.3421 -3.7583 10.3977 1.6213 -0.9325 -3.9015 3.0801 -1.3741 -3.4195 2.2188 -0.7318 -1.2875 -11.7971 -8.6423 -15.1574 7.7706 -10.8862 17.6860 3.1424 -5.1959 9.1350 -0.0000 0.0000 0.0000 -90.5948 1.2725 3.4229 11.3868 -18.8787 -1.8992 -0.0000 -0.0000 32.5723 13.2162 17.4559 4.0297 -7.1250 0.0000 -0.0000 -14.0886 47.3742 -0.8413 -0.0000 0.0000 0.0000 82.0929 2.0007 17.4001 -11.6096 19.2166 -1.9719 0.0000 0.0000 12.9762 -10.1159 -26.1606 4.4977 7.1250 -0.0000 -0.0000 21.0985 -55.2262 -5.4759
42.7895 17.9511 6.2019 -135.1530 -84.0605 143.3340 0.0000 0.0000 0.0000 -15.1641 -6.4916 -2.7405 0.2335 3.1102 8.5858 0.2955 -0.3568 -10.1484 0.0680 1.6822 4.6281 0.0000 0.0000 0.0000 26.1319 5.6185 -6.7977 -0.6580 -5.1882 14.4461 -0.0032 -10.3602 -14.8051 -0.3460 -3.7796 10.4575 1.7804 -1.0692 -4.0026 3.3611 -1.5723 -3.3440 2.4102 -0.8339 -1.1449 -12.2585 -8.3426 -15.0306 7.8827 -10.3694 17.4162 3.3362 -4.9743 8.9983 0.0000 -0.0000 0.0000 -91.1016 1.1444 2.8580 11.4739 -19.0110 -1.9275 -0.0000 -0.0000 32.4910 13.2082 17.5085 4.0389 -7.1250 0.0000 -0.0000 -14.1138 47.4249 -0.8609 0.0000 -0.0000 0.0000 81.7380 2.2548 17.8969 -11.6327 19.2515 -1.9795 0.0000 0.0000 13.2485 -11.7548 -23.1440 4.6757 7.1250 -0.0000 -0.0000 17.8249 -52.6791 -3.4569
42.7894 17.9496 6.1991 -134.2410 -83.9858 142.4270 0.0000 0.0000 0.0000 -15.0019 -6.4973 -2.7168 0.2317 3.0983 8.5526 0.2951 -0.3315 -10.1491 0.0662 1.6604 4.5680 0.0000 0.0000 0.0000 26.2906 5.6417 -6.8039 -0.6601 -5.1965 14.4700 -0.0018 -10.3752 -14.8045 -0.3478 -3.7891 10.4842 1.8743 -1.3098 -4.0126 3.6457 -1.9039 -3.3082 2.6405 -1.0020 -1.0869 -12.7419 -8.1403 -15.1033 7.8787 -9.9621 17.4744 3.4696 -4.8131 9.0142 -0.0000 -0.0000 0.0000 -91.6130 1.1396 2.2736 11.5529 -19.1307 -1.9533 -0.0000 -0.0000 32.4894 13.2163 17.5046 4.0406 -7.1250 0.0000 -0.0000 -14.1051 47.4223 -0.8594 -0.0000 -0.0000 0.0000 81.3230 2.4094 18.7101 -11.5947 19.1940 -1.9670 0.0000 0.0000 13.2304 -11.8926 -22.9460 4.6937 7.1250 -0.0000 -0.0000 17.5938 -52.5132 -3.3371
42.7763 17.9515 6.1870 -133.4580 -84.3668 141.6170 0.0000 0.0000 0.0000 -15.1970 -6.5791 -2.6351 0.2305 3.0899 8.5292 0.2926 -0.5494 -10.0382 0.0642 1.6349 4.4977 0.0000 0.0000 0.0000 26.1202 5.5731 -6.5901 -0.6393 -5.1154 14.2380 0.0209 -10.7026 -14.9166 -0.3628 -3.8695 10.7099 1.7814 -1.4924 -3.8923 3.5124 -2.1329 -3.5424 2.5573 -1.1168 -1.3896 -12.7685 -7.9830 -14.6800 7.9168 -9.8331 17.7073 3.5190 -4.7695 9.0065 -0.0000 0.0000 0.0000 -91.4626 1.7401 2.6175 11.6672 -19.3036 -1.9909 -0.0000 -0.0000 32.0823 13.2737 17.4870 4.0547 -7.1250 0.0000 -0.0000 -14.0461 47.4126 -0.8522 -0.0000 0.0000 0.0000 81.4660 1.8630 19.1707 -11.5410 19.1127 -1.9494 0.0000 0.0000 12.9546 -12.5782 -21.2783 4.6293 7.1250 -0.0000 -0.0000 16.1632 -51.0196 -2.4517
42.7875 17.9500 6.1942 -135.1440 -84.1500 143.4010 0.0000 0.0000 0.0000 -15.2092 -6.5910 -2.7563 0.2312 3.0945 8.5419 0.2957 -0.3533 -10.1516 0.0634 1.6246 4.4692 0.0000 0.0000 0.0000 26.0886 5.6516 -6.8842 -0.6608 -5.1991 14.4773 0.0026 -10.4418 -14.8292 -0.3548 -3.8268 10.5898 2.4407 -0.7462 -3.6881 2.5545 -1.1308 -3.9632 1.2378 -0.6407 -2.0003 -11.2105 -8.1629 -12.7540 8.0020 -10.6692 17.0508 3.2452 -5.1174 8.4416 -0.0000 0.0000 0.0000 -89.7506 2.4228 5.3215 11.6904 -19.3387 -1.9986 -0.0000 -0.0000 31.4973 13.1610 17.7594 4.0796 -7.1250 0.0000 -0.0000 -14.2438 47.6658 -0.9552 -0.0000 0.0000 0.0000 83.1723 0.5713 16.7863 -11.7518 19.4314 -2.0190 0.0000 0.0000 13.4386 -11.8056 -22.8422 4.6387 7.1250 -0.0000 -0.0000 17.6274 -52.3987 -3.2934
42.7868 17.9495 6.1918 -135.0500 -84.1668 143.3490 0.0000 0.0000 0.0000 -15.1925 -6.5855 -2.8238 0.2316 3.0977 8.5508 0.2951 -0.3625 -10.1386 0.0567 1.5364 4.2261 0.0000 0.0000 0.0000 26.0863 5.6613 -6.9338 -0.6618 -5.2028 14.4878 0.0023 -10.4486 -14.8438 -0.3559 -3.8325 10.6060 2.0652 -0.7920 -3.6103 2.9007 -1.1825 -4.1034 1.8075 -0.6578 -2.1739 -11.5237 -8.0714 -12.2986 7.7974 -10.4802 16.9366 3.2674 -5.0793 8.3090 0.0000 -0.0000 0.0000 -90.3491 2.6825 5.3355 11.7613 -19.4457 -2.0221 -0.0000 -0.0000 31.5268 13.2935 17.5973 4.0857 -7.1250 0.0000 -0.0000 -14.0653 47.5242 -0.8928 0.0000 -0.0000 0.0000 82.6116 0.2816 16.9158 -11.7552 19.4364 -2.0201 0.0000 0.0000 13.4950 -11.9746 -22.6869 4.6765 7.1250 -0.0000 -0.0000 17.3887 -52.2787 -3.1946
42.7864 17.9493 6.1881 -135.0030 -84.1712 143.3340 0.0000 0.0000 0.0000 -15.1575 -6.5331 -2.8716 0.2305 3.0904 8.5304 0.2911 -0.3963 -10.0592 0.0615 1.6000 4.4015 0.0000 0.0000 0.0000 26.1064 5.7078 -6.9725 -0.6659 -5.2186 14.5332 0.0019 -10.4617 -14.8678 -0.3591 -3.8495 10.6535 1.7530 -0.9276 -3.4695 3.2538 -1.3537 -4.4070 2.3536 -0.7376 -2.5494 -12.0609 -7.7926 -11.3051 7.7666 -10.0999 16.7634 3.4262 -4.9666 8.0626 -0.0000 -0.0000 0.0000 -90.9758 3.3204 5.2352 11.8811 -19.6261 -2.0622 -0.0000 -0.0000 31.4253 13.3776 17.8458 4.1684 -7.1250 0.0000 -0.0000 -14.0730 47.7809 -0.9839 -0.0000 -0.0000 0.0000 82.0367 -0.3304 17.5278 -11.7782 19.4711 -2.0277 0.0000 0.0000 13.2963 -11.5996 -22.1227 4.4202 7.1250 -0.0000 -0.0000 17.4824 -51.6738 -2.9485
42.7851 17.9490 6.1855 -134.8930 -84.1812 143.2410 0.0000 0.0000 0.0000 -15.1458 -6.5618 -2.8692 0.2300 3.0866 8.5199 0.2924 -0.4104 -10.0767 0.0672 1.6728 4.6022 0.0000 0.0000 0.0000 26.1115 5.6913 -6.9821 -0.6631 -5.2080 14.5027 0.0043 -10.4691 -14.8417 -0.3604 -3.8567 10.6739 1.5776 -1.1198 -3.2140 3.5201 -1.5992 -4.9323 2.7450 -0.8595 -3.2204 -12.5011 -7.3807 -9.6634 7.6910 -9.6490 16.5038 3.5817 -4.8378 7.6562 0.0000 0.0000 0.0000 -91.4563 4.5726 5.1589 12.1001 -19.9546 -2.1363 -0.0000 -0.0000 31.1135 13.5102 17.8711 4.2169 -7.1250 0.0000 -0.0000 -13.9587 47.8242 -0.9908 0.0000 0.0000 0.0000 81.6131 -1.3884 18.3425 -11.8432 19.5691 -2.0495 0.0000 0.0000 13.1009 -11.9375 -22.8471 4.6927 7.1250 -0.0000 -0.0000 17.5020 -52.4260 -3.2807
42.7845 17.9487 6.1831 -134.7210 -84.1969 143.0980 0.0000 0.0000 0.0000 -15.1312 -6.6326 -2.8853 0.2312 3.0949 8.5429 0.2969 -0.4099 -10.1545 0.0686 1.6894 4.6481 0.0000 0.0000 0.0000 26.1265 5.7183 -7.0014 -0.6631 -5.2080 14.5026 0.0038 -10.4835 -14.8696 -0.3709 -3.9120 10.8293 1.5711 -1.0941 -3.0152 3.5375 -1.5559 -5.0000 2.7742 -0.8374 -3.4038 -12.4226 -7.4037 -9.7116 7.5920 -9.6751 16.5772 3.5314 -4.8532 7.6826 0.0000 -0.0000 0.0000 -91.5036 4.6701 5.4890 12.1869 -20.0844 -2.1660 -0.0000 -0.0000 31.0586 13.4523 17.8090 4.1842 -7.1250 0.0000 -0.0000 -13.9910 47.7548 -0.9689 0.0000 -0.0000 0.0000 81.6234 -1.5159 18.0943 -11.8260 19.5432 -2.0437 0.0000 0.0000 13.1875 -11.4872 -22.4848 4.4440 7.1250 -0.0000 -0.0000 17.7620 -52.0021 -3.1440
42.7823 17.9483 6.1809 -135.0120 -84.2242 143.4220 0.0000 0.0000 0.0000 -15.1787 -6.6559 -2.9043 0.2313 3.0955 8.5447 0.2941 -0.3797 -10.1155 0.0735 1.7488 4.8118 0.0000 0.0000 0.0000 26.0809 5.6985 -7.0332 -0.6619 -5.2034 14.4895 0.0048 -10.4710 -14.8357 -0.3659 -3.8854 10.7545 1.6005 -0.9840 -2.9734 3.4494 -1.4060 -4.7893 2.6620 -0.7610 -3.2158 -12.0836 -7.5553 -10.5605 7.4086 -9.8022 16.7757 3.3727 -4.8826 7.8853 0.0000 -0.0000 0.0000 -91.3500 4.1122 5.9965 12.1658 -20.0528 -2.1588 -0.0000 -0.0000 31.0190 13.5007 17.5832 4.1484 -7.1250 0.0000 -0.0000 -13.8689 47.5385 -0.8849 0.0000 -0.0000 0.0000 81.7792 -1.1615 17.6104 -11.8188 19.5323 -2.0413 0.0000 0.0000 13.2070 -11.5137 -22.4725 4.4522 7.1250 -0.0000 -0.0000 17.7305 -51.9948 -3.1349
42.7819 17.9480 6.1785 -134.7860 -84.2677 143.2440 0.0000 0.0000 0.0000 -15.1748 -6.6705 -2.9702 0.2321 3.1007 8.5592 0.2950 -0.4295 -10.1161 0.0676 1.6771 4.6141 0.0000 0.0000 0.0000 26.0702 5.6944 -7.0943 -0.6632 -5.2084 14.5040 0.0047 -10.4811 -14.8519 -0.3681 -3.8970 10.7872 1.5888 -0.9577 -2.8262 3.4530 -1.3641 -4.8523 2.6776 -0.7397 -3.3653 -11.9434 -7.5605 -10.5495 7.2554 -9.8094 16.8113 3.2989 -4.8913 7.8805 0.0000 -0.0000 0.0000 -91.3653 4.2171 6.5057 12.2839 -20.2290 -2.1995 -0.0000 -0.0000 30.8503 13.4297 17.6777 4.1472 -7.1250 0.0000 -0.0000 -13.9669 47.6220 -0.9206 0.0000 -0.0000 0.0000 81.7983 -1.2816 17.4231 -11.8108 19.5203 -2.0386 0.0000 0.0000 13.2478 -11.9619 -22.4781 4.6309 7.1250 -0.0000 -0.0000 17.3012 -52.0760 -3.0902
